<svg xmlns="http://www.w3.org/2000/svg" width="272" height="272" viewBox="0 0 272 272">
  <defs>
    <style>
      .cls-1 {
        fill: #2299dd;
        fill-rule: evenodd;
      }
    </style>
  </defs>
  <g id="favicon">
    <path class="cls-1" fill="#2299dd" d="M808,1862a136,136,0,1,1-136,136A136,136,0,0,1,808,1862Zm-53.984,180.2h10.112v-89.61H754.016v89.61Zm72.192,1.4c22.4,0,37.377-13.57,37.377-39.68v-51.33H853.473v52.1c0,19.58-10.5,29.57-27.009,29.57-17.153,0-27.394-10.88-27.394-30.21v-51.46H788.958v52.1C788.958,2030.03,804.063,2043.6,826.208,2043.6Zm66.429-91.01h-11.9l33.153,43.91-34.433,45.7H891.1l28.674-38.53L940,2030.84q1.534-6.18,2.5-12.58l-16.449-21.89,16.038-21.18q-1.026-6.075-2.58-11.97l-19.346,25.98Zm-163.448,51.33v-51.33H719.076v52.1c0,19.58-10.5,29.57-27.009,29.57-6.5,0-12.01-1.57-16.345-4.56q1.488,6.225,3.532,12.23a45.667,45.667,0,0,0,12.557,1.67C714.212,2043.6,729.189,2030.03,729.189,2003.92Z" transform="translate(-672 -1862)"/>
    <path id="Shape_4_copy" data-name="Shape 4 copy" class="cls-1" fill="#2299dd" d="M942.5,2018.26a137,137,0,0,0-.411-43.07l-16.038,21.18Z" transform="translate(-672 -1862)"/>
  </g>
</svg>
