<svg xmlns="http://www.w3.org/2000/svg" width="64" height="64" viewBox="0 0 64 64">
  <defs>
    <style>
      .cls-1 {
        fill: #f8f8f8;
        fill-rule: evenodd;
      }
    </style>
  </defs>
  <g id="icons__behance_i">
    <path id="Bē_copy" data-name="Bē copy" class="cls-1" d="M772.748,1259.3q4.848,0,7.612-2.26a7.47,7.47,0,0,0,2.764-6.16,7.253,7.253,0,0,0-2-5.23,8.342,8.342,0,0,0-5.188-2.41v-0.14a6.5,6.5,0,0,0,4.018-2.41,7.28,7.28,0,0,0-.85-9.99,9.607,9.607,0,0,0-6.422-2.08h-11.29v30.68h11.354Zm-8.462-28.11h7.782a7.493,7.493,0,0,1,4.805,1.4,4.747,4.747,0,0,1,1.744,3.91,5.092,5.092,0,0,1-1.957,4.24,8.759,8.759,0,0,1-5.443,1.51h-6.931v-11.06Zm0,25.54v-11.98h7.675a10.16,10.16,0,0,1,6.082,1.56,5.16,5.16,0,0,1,2.1,4.42,5.242,5.242,0,0,1-2.019,4.42,9.2,9.2,0,0,1-5.763,1.58h-8.079Zm31.66-18.1a6.509,6.509,0,0,1,5.039,2.11,7.966,7.966,0,0,1,1.956,5.5H788.7a8.323,8.323,0,0,1,2.19-5.5,6.617,6.617,0,0,1,5.061-2.11h0Zm6.846,14.18a5.144,5.144,0,0,1-2.254,3.06,7.556,7.556,0,0,1-4.316,1.2,7.026,7.026,0,0,1-5.465-2.26,8.709,8.709,0,0,1-2.062-6.12v-0.15h17.18v-1.23a11.883,11.883,0,0,0-2.679-8.15,9.2,9.2,0,0,0-7.208-3.02,9.377,9.377,0,0,0-7.421,3.21,12.587,12.587,0,0,0-2.785,8.55q0,5.385,2.807,8.53a9.674,9.674,0,0,0,7.569,3.12,10.369,10.369,0,0,0,6.315-1.91,7.343,7.343,0,0,0,3.1-4.83h-2.785Zm-0.276-23.28H789.375v1.81h13.141v-1.81Z" transform="translate(-752 -1212)"/>
  </g>
</svg>
