<svg xmlns="http://www.w3.org/2000/svg" width="64" height="64" viewBox="0 0 64 64">
  <defs>
    <style>
      .cls-1 {
        fill: #999;
        fill-rule: evenodd;
      }
    </style>
  </defs>
  <g id="icons__im">
    <path class="cls-1" d="M720.25,1308.25h-32.5A3.753,3.753,0,0,0,684,1312v21a3.753,3.753,0,0,0,3.75,3.75h27.874a1.291,1.291,0,0,1,.78.27l5.565,4.46a1.251,1.251,0,0,0,.781.27,1.288,1.288,0,0,0,.542-0.12,1.259,1.259,0,0,0,.708-1.13V1312A3.753,3.753,0,0,0,720.25,1308.25Zm1.25,29.65-3.534-2.83a3.761,3.761,0,0,0-2.342-.82H687.75a1.25,1.25,0,0,1-1.25-1.25v-21a1.25,1.25,0,0,1,1.25-1.25h32.5a1.25,1.25,0,0,1,1.25,1.25v25.9Zm-23.75-14.15h2.5v-2.5h-2.5v2.5Zm10,0h2.5v-2.5h-2.5v2.5Zm-5,0h2.5v-2.5h-2.5v2.5Z" transform="translate(-672 -1292)"/>
  </g>
</svg>
