<svg xmlns="http://www.w3.org/2000/svg" width="64" height="64" viewBox="0 0 64 64">
  <defs>
    <style>
      .cls-1 {
        fill: #f8f8f8;
        fill-rule: evenodd;
      }
    </style>
  </defs>
  <g id="icons__email_i">
    <path id="Shape_1_copy" data-name="Shape 1 copy" class="cls-1" d="M880.32,1228.4H847.68a3.5,3.5,0,0,0-3.4,3.4v24.4a3.407,3.407,0,0,0,3.4,3.4h32.64a3.407,3.407,0,0,0,3.4-3.4v-24.4A3.546,3.546,0,0,0,880.32,1228.4Zm0,2.72c0.173,0,.327,3.07.446,3.18l-15.541,11.65a0.923,0.923,0,0,0-.131.12,2.963,2.963,0,0,1-2.172.01,1.174,1.174,0,0,0-.145-0.13l-15.542-11.65c0.12-.11.273-3.18,0.445-3.18h32.64Zm0,25.76H847.68a0.678,0.678,0,0,1-.68-0.68v-18.68l14.085,10.56a5.125,5.125,0,0,0,5.831,0L881,1237.52v18.68A0.678,0.678,0,0,1,880.32,1256.88Z" transform="translate(-832 -1212)"/>
  </g>
</svg>
