<svg xmlns="http://www.w3.org/2000/svg" width="64" height="64" viewBox="0 0 64 64">
  <defs>
    <style>
      .cls-1 {
        fill: #999;
        fill-rule: evenodd;
      }
    </style>
  </defs>
  <g id="icons__im">
    <path class="cls-1" d="M720.25,1310.25h-32.5A3.753,3.753,0,0,0,684,1314v21a3.753,3.753,0,0,0,3.75,3.75h27.873a1.292,1.292,0,0,1,.781.27l5.565,4.46a1.251,1.251,0,0,0,.781.27,1.288,1.288,0,0,0,.542-0.12,1.259,1.259,0,0,0,.708-1.13V1314A3.753,3.753,0,0,0,720.25,1310.25Zm1.25,29.65-3.534-2.83a3.762,3.762,0,0,0-2.343-.82H687.75a1.25,1.25,0,0,1-1.25-1.25v-21a1.25,1.25,0,0,1,1.25-1.25h32.5a1.25,1.25,0,0,1,1.25,1.25v25.9Z" transform="translate(-672 -1292)"/>
  </g>
</svg>
