<?xml version="1.0" standalone="no"?>
<!DOCTYPE svg PUBLIC "-//W3C//DTD SVG 20010904//EN"
 "http://www.w3.org/TR/2001/REC-SVG-20010904/DTD/svg10.dtd">
<svg version="1.0" xmlns="http://www.w3.org/2000/svg"
 width="272.000000pt" height="272.000000pt" viewBox="0 0 272.000000 272.000000"
 preserveAspectRatio="xMidYMid meet">
<metadata>
Created by potrace 1.11, written by Peter Selinger 2001-2013
</metadata>
<g transform="translate(0.000000,272.000000) scale(0.100000,-0.100000)"
fill="#000000" stroke="none">
<path d="M1229 2716 c-2 -2 -29 -7 -59 -10 -189 -23 -411 -110 -581 -228 -314
-218 -529 -565 -577 -932 -9 -68 -9 -285 0 -364 18 -159 38 -177 188 -177 133
0 186 30 241 135 24 44 24 51 27 358 2 231 6 312 15 313 7 1 29 2 50 3 l37 2
-1 -305 c0 -267 -3 -313 -19 -364 -49 -155 -169 -238 -345 -240 -44 -1 -92 2
-107 6 l-27 7 26 -62 c130 -320 374 -581 677 -723 203 -96 378 -134 611 -130
277 4 502 74 736 230 243 162 432 411 529 697 29 87 30 92 14 117 -22 34 -184
251 -187 251 -2 0 -66 -85 -142 -189 l-140 -189 -58 -4 c-31 -2 -57 0 -57 3 0
5 33 51 68 94 4 6 64 84 131 175 68 91 128 170 132 175 6 8 -146 222 -223 315
-16 18 -83 111 -91 125 -4 7 14 10 51 10 l57 -1 132 -175 c73 -96 138 -175
145 -176 7 -1 36 29 63 69 28 39 60 82 72 96 12 14 30 40 39 57 16 30 16 35
-5 101 -45 141 -139 312 -237 434 -101 125 -290 277 -436 351 -106 54 -272
111 -356 124 -21 3 -49 8 -62 11 -27 7 -325 15 -331 10z m-313 -908 c10 -11 5
-881 -6 -888 -5 -3 -22 -5 -37 -4 -15 1 -34 3 -40 3 -10 1 -13 97 -13 444 0
244 2 446 5 448 7 7 83 4 91 -3z m354 -279 c0 -337 8 -383 81 -456 121 -123
353 -92 429 57 30 59 36 123 35 413 -1 294 -6 270 60 270 14 0 29 -1 33 -2 10
-1 8 -570 -2 -624 -18 -95 -91 -199 -169 -239 -167 -85 -404 -40 -495 95 -65
96 -66 102 -70 446 -2 219 0 316 7 321 6 3 29 6 51 6 l40 -1 0 -286z"/>
<path d="M2620 1484 c-40 -53 -73 -102 -73 -108 0 -7 35 -59 79 -117 l78 -104
8 45 c11 61 4 358 -9 371 -6 6 -34 -22 -83 -87z"/>
</g>
</svg>
